<svg width="125" height="25" viewBox="0 0 125 25" fill="none" xmlns="http://www.w3.org/2000/svg">
<path d="M99.7055 23.6288H96.9643L96.5248 24.9262H94.652L97.3095 17.5813H99.3812L102.039 24.9262H100.145L99.7055 23.6288ZM99.2452 22.2477L98.3349 19.5588L97.4351 22.2477H99.2452Z" fill="white"/>
<path d="M107.756 19.904C107.623 19.6599 107.432 19.4751 107.18 19.3495C106.936 19.217 106.647 19.1507 106.312 19.1507C105.733 19.1507 105.269 19.3425 104.92 19.7262C104.572 20.1028 104.397 20.6085 104.397 21.2433C104.397 21.9199 104.579 22.45 104.941 22.8336C105.311 23.2103 105.817 23.3986 106.459 23.3986C106.898 23.3986 107.268 23.287 107.568 23.0638C107.874 22.8406 108.098 22.5197 108.237 22.1012H105.967V20.7829H109.859V22.4465C109.726 22.8929 109.5 23.3079 109.179 23.6916C108.865 24.0752 108.464 24.3856 107.976 24.6228C107.487 24.8599 106.936 24.9785 106.323 24.9785C105.597 24.9785 104.948 24.8215 104.376 24.5077C103.811 24.1868 103.369 23.7439 103.048 23.1789C102.734 22.6139 102.577 21.9687 102.577 21.2433C102.577 20.5178 102.734 19.8726 103.048 19.3076C103.369 18.7357 103.811 18.2928 104.376 17.9789C104.941 17.658 105.587 17.4976 106.312 17.4976C107.191 17.4976 107.93 17.7103 108.53 18.1358C109.137 18.5613 109.538 19.1507 109.733 19.904H107.756Z" fill="white"/>
<path d="M114.628 24.9262L113.101 22.1535H112.672V24.9262H110.883V17.5813H113.885C114.464 17.5813 114.956 17.6824 115.361 17.8847C115.772 18.087 116.079 18.366 116.281 18.7217C116.484 19.0705 116.585 19.4611 116.585 19.8936C116.585 20.3818 116.445 20.8178 116.166 21.2014C115.894 21.5851 115.49 21.8571 114.953 22.0175L116.648 24.9262H114.628ZM112.672 20.8875H113.781C114.109 20.8875 114.353 20.8073 114.513 20.6469C114.681 20.4865 114.764 20.2598 114.764 19.9668C114.764 19.6878 114.681 19.4681 114.513 19.3076C114.353 19.1472 114.109 19.067 113.781 19.067H112.672V20.8875Z" fill="white"/>
<path d="M121.214 24.9994C120.524 24.9994 119.889 24.839 119.31 24.5181C118.738 24.1973 118.281 23.7509 117.939 23.1789C117.605 22.5999 117.437 21.9512 117.437 21.2328C117.437 20.5144 117.605 19.8691 117.939 19.2972C118.281 18.7252 118.738 18.2788 119.31 17.9579C119.889 17.6371 120.524 17.4767 121.214 17.4767C121.905 17.4767 122.536 17.6371 123.108 17.9579C123.687 18.2788 124.14 18.7252 124.468 19.2972C124.803 19.8691 124.97 20.5144 124.97 21.2328C124.97 21.9512 124.803 22.5999 124.468 23.1789C124.133 23.7509 123.68 24.1973 123.108 24.5181C122.536 24.839 121.905 24.9994 121.214 24.9994ZM121.214 23.3672C121.8 23.3672 122.268 23.1719 122.616 22.7813C122.972 22.3907 123.15 21.8745 123.15 21.2328C123.15 20.5841 122.972 20.0679 122.616 19.6843C122.268 19.2937 121.8 19.0984 121.214 19.0984C120.621 19.0984 120.147 19.2902 119.791 19.6738C119.443 20.0575 119.268 20.5771 119.268 21.2328C119.268 21.8815 119.443 22.4011 119.791 22.7918C120.147 23.1754 120.621 23.3672 121.214 23.3672Z" fill="white"/>
<path d="M82.0458 4.93927C82.0458 5.79024 81.8505 6.57146 81.4599 7.28293C81.0693 7.98046 80.4694 8.54545 79.6603 8.97791C78.8512 9.41037 77.8467 9.62661 76.647 9.62661H74.4289V14.8999H70.8506V0.210076H76.647C77.8188 0.210076 78.8093 0.412357 79.6184 0.816919C80.4276 1.22148 81.0344 1.7795 81.439 2.49097C81.8435 3.20244 82.0458 4.01854 82.0458 4.93927ZM76.375 6.78072C77.0585 6.78072 77.5677 6.62029 77.9025 6.29943C78.2373 5.97857 78.4047 5.52518 78.4047 4.93927C78.4047 4.35335 78.2373 3.89996 77.9025 3.5791C77.5677 3.25824 77.0585 3.09781 76.375 3.09781H74.4289V6.78072H76.375Z" fill="white"/>
<path d="M93.0859 12.3051H87.6033L86.7245 14.8999H82.9788L88.2939 0.210076H92.4372L97.7523 14.8999H93.9647L93.0859 12.3051ZM92.1651 9.5429L90.3446 4.16502L88.545 9.5429H92.1651Z" fill="white"/>
<path d="M98.7958 7.53404C98.7958 6.0832 99.1097 4.79279 99.7374 3.6628C100.365 2.51887 101.237 1.63302 102.353 1.00525C103.483 0.363531 104.76 0.0426712 106.183 0.0426712C107.926 0.0426712 109.419 0.503035 110.661 1.42376C111.902 2.34449 112.732 3.60003 113.151 5.19037H109.217C108.924 4.57656 108.505 4.10922 107.961 3.78836C107.431 3.4675 106.824 3.30707 106.141 3.30707C105.039 3.30707 104.146 3.6907 103.462 4.45798C102.779 5.22525 102.437 6.2506 102.437 7.53404C102.437 8.81748 102.779 9.84284 103.462 10.6101C104.146 11.3774 105.039 11.761 106.141 11.761C106.824 11.761 107.431 11.6006 107.961 11.2797C108.505 10.9589 108.924 10.4915 109.217 9.87771H113.151C112.732 11.4681 111.902 12.7236 110.661 13.6443C109.419 14.5511 107.926 15.0045 106.183 15.0045C104.76 15.0045 103.483 14.6906 102.353 14.0628C101.237 13.4211 100.365 12.5353 99.7374 11.4053C99.1097 10.2753 98.7958 8.98489 98.7958 7.53404Z" fill="white"/>
<path d="M118.953 3.07689V6.04832H123.745V8.81051H118.953V12.0331H124.373V14.8999H115.375V0.210076H124.373V3.07689H118.953Z" fill="white"/>
<path d="M10.1071 12.3043H4.62456L3.74569 14.899H0L5.31511 0.209256H9.45838L14.7735 14.899H10.986L10.1071 12.3043ZM9.18635 9.54208L7.36582 4.1642L5.56622 9.54208H9.18635Z" fill="white"/>
<path d="M20.0021 3.07607V6.0475H24.7941V8.80969H20.0021V12.0322H25.4218V14.899H16.4238V0.209256H25.4218V3.07607H20.0021Z" fill="white"/>
<path d="M35.269 14.899L32.2138 9.35375H31.3559V14.899H27.7776V0.209256H33.7833C34.9412 0.209256 35.9247 0.411537 36.7338 0.816099C37.5569 1.22066 38.1707 1.77868 38.5752 2.49015C38.9798 3.18767 39.1821 3.96889 39.1821 4.83382C39.1821 5.81035 38.9031 6.68225 38.3451 7.44952C37.801 8.21679 36.9919 8.76086 35.9177 9.08172L39.3076 14.899H35.269ZM31.3559 6.82175H33.574C34.2297 6.82175 34.7179 6.66132 35.0388 6.34046C35.3736 6.0196 35.541 5.56621 35.541 4.9803C35.541 4.42228 35.3736 3.98284 35.0388 3.66198C34.7179 3.34112 34.2297 3.18069 33.574 3.18069H31.3559V6.82175Z" fill="white"/>
<path d="M48.4083 15.0455C47.0272 15.0455 45.7577 14.7247 44.5998 14.0829C43.4559 13.4412 42.5422 12.5484 41.8586 11.4045C41.189 10.2466 40.8542 8.94919 40.8542 7.5123C40.8542 6.0754 41.189 4.78499 41.8586 3.64106C42.5422 2.49712 43.4559 1.6043 44.5998 0.962579C45.7577 0.32086 47.0272 0 48.4083 0C49.7894 0 51.0519 0.32086 52.1959 0.962579C53.3537 1.6043 54.2605 2.49712 54.9162 3.64106C55.5858 4.78499 55.9206 6.0754 55.9206 7.5123C55.9206 8.94919 55.5858 10.2466 54.9162 11.4045C54.2466 12.5484 53.3398 13.4412 52.1959 14.0829C51.0519 14.7247 49.7894 15.0455 48.4083 15.0455ZM48.4083 11.7811C49.5802 11.7811 50.5148 11.3905 51.2123 10.6093C51.9238 9.82807 52.2796 8.79574 52.2796 7.5123C52.2796 6.21491 51.9238 5.18258 51.2123 4.41531C50.5148 3.63408 49.5802 3.24347 48.4083 3.24347C47.2225 3.24347 46.2739 3.62711 45.5624 4.39438C44.8649 5.16165 44.5161 6.20096 44.5161 7.5123C44.5161 8.80969 44.8649 9.84899 45.5624 10.6302C46.2739 11.3975 47.2225 11.7811 48.4083 11.7811Z" fill="white"/>
<path d="M63.2591 15.0455C62.1849 15.0455 61.2224 14.8711 60.3714 14.5224C59.5204 14.1736 58.8368 13.6575 58.3207 12.9739C57.8185 12.2903 57.5534 11.4672 57.5255 10.5047H61.334C61.3898 11.0487 61.5781 11.4672 61.899 11.7602C62.2198 12.0392 62.6383 12.1787 63.1545 12.1787C63.6846 12.1787 64.1031 12.0601 64.41 11.823C64.7169 11.5719 64.8704 11.2301 64.8704 10.7976C64.8704 10.4349 64.7448 10.135 64.4937 9.89782C64.2566 9.66066 63.9566 9.46536 63.5939 9.3119C63.2452 9.15845 62.743 8.98407 62.0873 8.78876C61.1387 8.4958 60.3644 8.20284 59.7646 7.90988C59.1647 7.61692 58.6485 7.18446 58.2161 6.6125C57.7836 6.04053 57.5674 5.29418 57.5674 4.37345C57.5674 3.00631 58.0626 1.93911 59.0531 1.17183C60.0436 0.390612 61.334 0 62.9243 0C64.5426 0 65.8469 0.390612 66.8374 1.17183C67.8279 1.93911 68.358 3.01329 68.4278 4.39438H64.5565C64.5286 3.92007 64.3542 3.55038 64.0334 3.28532C63.7125 3.00631 63.301 2.86681 62.7988 2.86681C62.3663 2.86681 62.0175 2.98539 61.7525 3.22254C61.4874 3.44575 61.3549 3.77359 61.3549 4.20605C61.3549 4.68036 61.5781 5.05005 62.0245 5.31511C62.4709 5.58017 63.1684 5.86615 64.1171 6.17306C65.0657 6.49392 65.833 6.80083 66.4189 7.09378C67.0188 7.38674 67.5349 7.81223 67.9674 8.37025C68.3999 8.92826 68.6161 9.64671 68.6161 10.5256C68.6161 11.3626 68.3999 12.1229 67.9674 12.8065C67.5489 13.49 66.9351 14.0341 66.1259 14.4387C65.3168 14.8432 64.3612 15.0455 63.2591 15.0455Z" fill="white"/>
</svg>
