<svg width="14" height="15" viewBox="0 0 14 15" fill="none" xmlns="http://www.w3.org/2000/svg">
<path d="M12.7148 9.91016C11.9492 9.17188 11.375 8.40625 11.375 5.83594C11.375 3.64844 9.65234 1.87109 7.4375 1.67969V1.1875C7.4375 0.941406 7.24609 0.75 7 0.75C6.75391 0.75 6.5625 0.941406 6.5625 1.1875V1.67969C4.34766 1.87109 2.625 3.64844 2.625 5.83594C2.625 8.40625 2.05078 9.17188 1.28516 9.91016C0.902344 10.2656 0.765625 10.8125 0.957031 11.3047C1.17578 11.7969 1.64062 12.125 2.1875 12.125H11.8125C12.3594 12.125 12.8242 11.7969 13.043 11.3047C13.2344 10.8125 13.0977 10.2656 12.7148 9.91016ZM11.8125 11.25H2.1875C1.80469 11.25 1.61328 10.7852 1.88672 10.5391C2.81641 9.63672 3.5 8.625 3.5 5.83594C3.5 3.97656 5.05859 2.5 7 2.5C8.94141 2.5 10.5 3.97656 10.5 5.83594C10.5 8.59766 11.1562 9.63672 12.1133 10.5391C12.3867 10.8125 12.1953 11.25 11.8125 11.25ZM8.3125 13C8.12109 13 7.92969 13.1094 7.84766 13.3008C7.73828 13.6289 7.38281 13.875 7 13.875C6.61719 13.875 6.26172 13.6289 6.15234 13.3008C6.07031 13.1094 5.87891 13 5.6875 13C5.38672 13 5.16797 13.2734 5.27734 13.5469C5.49609 14.2305 6.20703 14.75 7 14.75C7.79297 14.75 8.50391 14.2305 8.72266 13.5469C8.80469 13.2734 8.61328 13 8.3125 13Z" fill="#7E7BA2"/>
</svg>
