<svg width="14" height="13" viewBox="0 0 14 13" fill="none" xmlns="http://www.w3.org/2000/svg">
<path d="M3.36328 8.36328L6.125 5.62891L8.44922 7.92578C8.61328 8.11719 8.88672 8.11719 9.05078 7.92578L12.9883 3.98828C13.1797 3.82422 13.1797 3.55078 12.9883 3.38672C12.7969 3.22266 12.5508 3.19531 12.3867 3.38672L8.75 6.99609L6.42578 4.69922C6.26172 4.50781 5.98828 4.50781 5.82422 4.69922L2.76172 7.76172C2.57031 7.92578 2.57031 8.19922 2.76172 8.36328C2.92578 8.55469 3.19922 8.55469 3.36328 8.36328ZM13.5625 12H2.1875C1.47656 12 0.875 11.3984 0.875 10.6875V1.0625C0.875 0.816406 0.683594 0.625 0.4375 0.625C0.191406 0.625 0 0.816406 0 1.0625V10.6875C0 11.8906 0.984375 12.875 2.1875 12.875H13.5625C13.8086 12.875 14 12.6836 14 12.4375C14 12.1914 13.8086 12 13.5625 12Z" fill="#7E7BA2"/>
</svg>
