<svg width="13" height="11" viewBox="0 0 13 11" fill="none" xmlns="http://www.w3.org/2000/svg">
<path d="M6.60547 2.4375C6.97656 2.4375 7.32812 2.51562 7.64062 2.63281C7.91406 2.4375 8.10938 2.16406 8.22656 1.83203C7.73828 1.61719 7.19141 1.5 6.625 1.5C6.03906 1.5 5.51172 1.61719 5.00391 1.83203C5.12109 2.16406 5.33594 2.4375 5.58984 2.63281C5.90234 2.51562 6.25391 2.4375 6.60547 2.4375ZM4.18359 8.82422C4.41797 8.58984 4.59375 8.31641 4.67188 8.00391C4.02734 7.47656 3.59766 6.71484 3.51953 5.85547C3.34375 5.79688 3.1875 5.77734 2.99219 5.77734C2.85547 5.77734 2.69922 5.79688 2.5625 5.83594C2.64062 7.04688 3.26562 8.14062 4.18359 8.82422ZM8.55859 8.00391C8.63672 8.31641 8.8125 8.58984 9.04688 8.82422C9.96484 8.14062 10.5898 7.04688 10.668 5.83594C10.5312 5.79688 10.375 5.77734 10.2383 5.77734C10.043 5.77734 9.88672 5.79688 9.71094 5.85547C9.63281 6.71484 9.20312 7.47656 8.55859 8.00391ZM10.7852 4C10.4336 3.78516 10.082 3.66797 9.71094 3.60938C9.82812 3.25781 9.90625 2.88672 9.90625 2.49609C9.90625 1.69531 9.61328 0.933594 9.10547 0.308594C9.04688 0.25 8.96875 0.25 8.91016 0.269531C8.83203 0.308594 8.8125 0.386719 8.83203 0.464844C8.91016 0.738281 8.96875 0.972656 8.96875 1.22656C8.96875 2.53516 7.91406 3.62891 6.625 3.62891C5.31641 3.62891 4.28125 2.53516 4.28125 1.22656C4.28125 0.992188 4.32031 0.738281 4.39844 0.464844C4.41797 0.386719 4.39844 0.308594 4.33984 0.269531C4.26172 0.25 4.18359 0.25 4.14453 0.308594C3.61719 0.933594 3.34375 1.69531 3.34375 2.49609C3.34375 2.88672 3.40234 3.25781 3.53906 3.60938C3.16797 3.66797 2.79688 3.78516 2.44531 4C1.78125 4.39062 1.25391 5.03516 1 5.79688C0.980469 5.875 1 5.95312 1.05859 5.99219C1.13672 6.03125 1.21484 6.01172 1.25391 5.95312C1.44922 5.73828 1.625 5.58203 1.83984 5.46484C2.95312 4.80078 4.37891 5.19141 5.04297 6.34375C5.6875 7.49609 5.29688 8.96094 4.18359 9.625C3.96875 9.74219 3.75391 9.82031 3.48047 9.87891C3.40234 9.89844 3.34375 9.97656 3.34375 10.0352C3.36328 10.1133 3.40234 10.1914 3.48047 10.1914C4.26172 10.3477 5.0625 10.2109 5.72656 9.82031C6.07812 9.60547 6.37109 9.33203 6.60547 9.03906C6.85938 9.33203 7.15234 9.60547 7.50391 9.82031C8.16797 10.2109 8.96875 10.3477 9.75 10.1914C9.82812 10.1914 9.86719 10.1133 9.86719 10.0352C9.86719 9.97656 9.82812 9.89844 9.75 9.87891C9.47656 9.82031 9.24219 9.74219 9.04688 9.625C7.93359 8.96094 7.54297 7.49609 8.1875 6.34375C8.83203 5.19141 10.2773 4.80078 11.3906 5.46484C11.5859 5.58203 11.7812 5.73828 11.957 5.95312C12.0156 6.01172 12.0938 6.03125 12.1523 5.99219C12.2305 5.95312 12.25 5.875 12.2305 5.79688C11.9766 5.03516 11.4492 4.39062 10.7852 4ZM6.60547 6.51953C6.09766 6.51953 5.66797 6.08984 5.66797 5.58203C5.66797 5.05469 6.09766 4.64453 6.60547 4.64453C7.13281 4.64453 7.54297 5.05469 7.54297 5.58203C7.54297 6.08984 7.13281 6.51953 6.60547 6.51953Z" fill="#F73B00"/>
</svg>
