<svg width="16" height="16" viewBox="0 0 16 16" fill="none" xmlns="http://www.w3.org/2000/svg">
<path d="M16 5.53125C16 2.46875 13.5312 0 10.4688 0C7.4375 0.03125 5 2.46875 5 5.5C5 6.125 5.09375 6.6875 5.25 7.25L0.21875 12.2812C0.0625 12.4375 0 12.625 0 12.8125V15.25C0 15.6875 0.3125 16 0.75 16H4.25C4.65625 16 5 15.6875 5 15.25V14H6.25C6.65625 14 7 13.6875 7 13.25V12H8.15625C8.34375 12 8.59375 11.9062 8.71875 11.75L9.46875 10.9062C9.78125 10.9688 10.125 11 10.5 11C13.5312 11 16 8.5625 16 5.53125ZM10.5 4C10.5 3.1875 11.1562 2.5 12 2.5C12.8125 2.5 13.5 3.1875 13.5 4C13.5 4.84375 12.8125 5.5 12 5.5C11.1562 5.5 10.5 4.84375 10.5 4Z" fill="white"/>
</svg>
