<svg width="12" height="12" viewBox="0 0 12 12" fill="none" xmlns="http://www.w3.org/2000/svg">
<path d="M11.6875 5.75C11.6875 5.39453 11.3867 5.09375 11.0312 5.09375H6.65625V0.71875C6.65625 0.363281 6.35547 0.0625 6 0.0625C5.64453 0.0625 5.34375 0.363281 5.34375 0.71875V5.09375H0.96875C0.613281 5.09375 0.3125 5.39453 0.3125 5.75C0.3125 6.10547 0.613281 6.40625 0.96875 6.40625H5.34375V10.7812C5.34375 11.1367 5.64453 11.4375 6 11.4375C6.35547 11.4375 6.65625 11.1367 6.65625 10.7812V6.40625H11.0312C11.3867 6.40625 11.6875 6.10547 11.6875 5.75Z" fill="white"/>
</svg>
