<svg width="16" height="15" viewBox="0 0 16 15" fill="none" xmlns="http://www.w3.org/2000/svg">
<path d="M8 5.125C6.55078 5.125 5.375 6.30078 5.375 7.75C5.375 9.19922 6.55078 10.375 8 10.375C9.44922 10.375 10.625 9.19922 10.625 7.75C10.625 6.30078 9.44922 5.125 8 5.125ZM14.918 10.2383L13.1953 7.75L14.918 5.26172C15.1094 5.01562 14.9453 4.66016 14.6445 4.60547L11.6641 4.08594L11.1445 1.10547C11.0898 0.804688 10.7344 0.640625 10.4883 0.832031L8 2.55469L5.51172 0.832031C5.26562 0.640625 4.91016 0.804688 4.85547 1.10547L4.33594 4.08594L1.35547 4.60547C1.05469 4.66016 0.890625 5.01562 1.08203 5.26172L2.80469 7.75L1.08203 10.2383C0.890625 10.4844 1.05469 10.8398 1.35547 10.8945L4.33594 11.4141L4.85547 14.3945C4.91016 14.6953 5.26562 14.8594 5.51172 14.668L8 12.9453L10.4883 14.668C10.7344 14.8594 11.0898 14.6953 11.1445 14.3945L11.6641 11.4141L14.6445 10.8945C14.9453 10.8398 15.1094 10.4844 14.918 10.2383ZM8 11.25C6.05859 11.25 4.5 9.69141 4.5 7.75C4.5 5.80859 6.05859 4.25 8 4.25C9.94141 4.25 11.5 5.80859 11.5 7.75C11.5 9.69141 9.94141 11.25 8 11.25Z" fill="#FFB400"/>
</svg>
