<svg width="14" height="15" viewBox="0 0 14 15" fill="none" xmlns="http://www.w3.org/2000/svg">
<path d="M11.375 2.5H10.2812V1.40625C10.2812 1.05078 9.98047 0.75 9.625 0.75C9.26953 0.75 8.96875 1.05078 8.96875 1.40625V2.5H5.03125V1.40625C5.03125 1.05078 4.73047 0.75 4.375 0.75C4.01953 0.75 3.71875 1.05078 3.71875 1.40625V2.5H2.625C1.66797 2.5 0.875 3.29297 0.875 4.25V13C0.875 13.957 1.66797 14.75 2.625 14.75H11.375C12.332 14.75 13.125 13.957 13.125 13V4.25C13.125 3.29297 12.332 2.5 11.375 2.5ZM11.375 13.4375H2.625C2.37891 13.4375 2.1875 13.2461 2.1875 13V6H11.8125V13C11.8125 13.2461 11.6211 13.4375 11.375 13.4375Z" fill="white"/>
</svg>
