<svg width="15" height="15" viewBox="0 0 15 15" fill="none" xmlns="http://www.w3.org/2000/svg">
<g style="mix-blend-mode:overlay">
<path d="M13.5625 2.08984L12.6602 1.1875C12.3594 0.886719 11.9492 0.75 11.5664 0.75C11.1836 0.75 10.7734 0.886719 10.5 1.1875L4.56641 7.12109C4.375 7.3125 4.23828 7.55859 4.15625 7.85938L3.5 10.7852C3.44531 11.0312 3.63672 11.25 3.88281 11.25H3.96484C3.96484 11.25 5.98828 10.8125 6.89062 10.5938C7.16406 10.5391 7.41016 10.4023 7.62891 10.1836L13.5625 4.25C14.1641 3.64844 14.1367 2.69141 13.5625 2.08984ZM12.6328 3.32031L6.69922 9.25391C6.67188 9.28125 6.61719 9.30859 6.58984 9.30859C6.20703 9.41797 5.63281 9.52734 5.11328 9.66406L5.44141 8.13281C5.46875 8.10547 5.46875 8.07812 5.49609 8.02344L11.4023 2.11719C11.457 2.0625 11.5391 2.0625 11.5664 2.0625C11.5938 2.0625 11.6758 2.0625 11.7305 2.11719L12.6328 3.01953C12.7148 3.10156 12.7148 3.23828 12.6328 3.32031ZM11.5938 8.625C11.2383 8.625 10.9375 8.92578 10.9375 9.28125V12.7812C10.9375 13.1367 10.6367 13.4375 10.2812 13.4375H1.96875C1.61328 13.4375 1.3125 13.1367 1.3125 12.7812V4.46875C1.3125 4.11328 1.61328 3.8125 1.96875 3.8125H5.90625C6.26172 3.8125 6.5625 3.51172 6.5625 3.15625C6.5625 2.80078 6.26172 2.5 5.90625 2.5H1.96875C0.875 2.5 0 3.375 0 4.46875V12.7812C0 13.875 0.875 14.75 1.96875 14.75H10.2812C11.375 14.75 12.25 13.875 12.25 12.7812V9.28125C12.25 8.92578 11.9492 8.625 11.5938 8.625Z" fill="white"/>
</g>
</svg>
