<svg width="10" height="11" viewBox="0 0 10 11" fill="none" xmlns="http://www.w3.org/2000/svg">
<path d="M9.84375 5.25C9.84375 2.59375 7.65625 0.40625 5 0.40625C2.32422 0.40625 0.15625 2.59375 0.15625 5.25C0.15625 7.92578 2.32422 10.0938 5 10.0938C7.65625 10.0938 9.84375 7.92578 9.84375 5.25ZM5.11719 2.00781C6.23047 2.00781 7.40234 2.86719 7.40234 4C7.40234 5.52344 5.78125 5.54297 5.78125 6.08984V6.10938C5.78125 6.24609 5.66406 6.34375 5.54688 6.34375H4.45312C4.31641 6.34375 4.21875 6.24609 4.21875 6.10938V6.03125C4.21875 5.23047 4.82422 4.91797 5.27344 4.66406C5.66406 4.44922 5.91797 4.29297 5.91797 4C5.91797 3.60938 5.41016 3.35547 5.01953 3.35547C4.49219 3.35547 4.25781 3.60938 3.90625 4.05859C3.82812 4.15625 3.67188 4.17578 3.57422 4.09766L2.89062 3.58984C2.79297 3.51172 2.77344 3.375 2.85156 3.25781C3.37891 2.45703 4.0625 2.00781 5.11719 2.00781ZM5 6.85156C5.48828 6.85156 5.89844 7.26172 5.89844 7.75C5.89844 8.25781 5.48828 8.64844 5 8.64844C4.49219 8.64844 4.10156 8.25781 4.10156 7.75C4.10156 7.26172 4.49219 6.85156 5 6.85156Z" fill="#00FF66"/>
</svg>
