<svg width="14" height="14" viewBox="0 0 14 14" fill="none" xmlns="http://www.w3.org/2000/svg">
<path d="M11.9219 11.0703C12.9336 9.92188 13.5625 8.41797 13.5625 6.75C13.5625 5.08203 12.9336 3.57812 11.9219 2.42969L12.1133 2.23828C12.3047 2.07422 12.3047 1.80078 12.1133 1.63672C11.9219 1.47266 11.6758 1.44531 11.5117 1.63672L11.3203 1.82812C10.1719 0.816406 8.66797 0.1875 7 0.1875C5.33203 0.1875 3.82812 0.816406 2.67969 1.82812L2.48828 1.63672C2.32422 1.44531 2.05078 1.44531 1.88672 1.63672C1.72266 1.82812 1.69531 2.07422 1.88672 2.23828L2.07812 2.42969C1.06641 3.57812 0.4375 5.08203 0.4375 6.75C0.4375 8.41797 1.06641 9.92188 2.07812 11.0703L1.88672 11.2617C1.69531 11.4258 1.69531 11.6992 1.88672 11.8633C1.96875 11.9453 2.07812 12 2.1875 12C2.29688 12 2.40625 11.9453 2.48828 11.8633L2.67969 11.6719C3.82812 12.6836 5.33203 13.3125 7 13.3125C8.66797 13.3125 10.1719 12.6836 11.3203 11.6719L11.5117 11.8633C11.5938 11.9453 11.7031 12 11.8125 12C11.9219 12 12.0312 11.9453 12.1133 11.8633C12.3047 11.6992 12.3047 11.4258 12.1133 11.2617L11.9219 11.0703ZM12.6875 6.75C12.6875 8.17188 12.168 9.45703 11.3203 10.4414L9.13281 8.25391C9.43359 7.84375 9.625 7.32422 9.625 6.75C9.625 6.17578 9.43359 5.65625 9.13281 5.24609L11.3203 3.05859C12.168 4.04297 12.6875 5.32812 12.6875 6.75ZM5.25 6.75C5.25 5.79297 6.04297 5 7 5C7.95703 5 8.75 5.79297 8.75 6.75C8.75 7.70703 7.95703 8.5 7 8.5C6.04297 8.5 5.25 7.70703 5.25 6.75ZM7 1.0625C8.42188 1.0625 9.70703 1.58203 10.6914 2.42969L8.50391 4.61719C8.09375 4.31641 7.57422 4.125 7 4.125C6.42578 4.125 5.90625 4.31641 5.49609 4.61719L3.30859 2.42969C4.29297 1.58203 5.57812 1.0625 7 1.0625ZM1.3125 6.75C1.3125 5.32812 1.83203 4.04297 2.67969 3.05859L4.86719 5.24609C4.56641 5.65625 4.375 6.17578 4.375 6.75C4.375 7.32422 4.56641 7.84375 4.86719 8.25391L2.67969 10.4414C1.83203 9.45703 1.3125 8.17188 1.3125 6.75ZM7 12.4375C5.57812 12.4375 4.29297 11.918 3.30859 11.0703L5.49609 8.88281C5.90625 9.18359 6.42578 9.375 7 9.375C7.57422 9.375 8.09375 9.18359 8.50391 8.88281L10.6914 11.0703C9.70703 11.918 8.42188 12.4375 7 12.4375Z" fill="#7E7BA2"/>
</svg>
