<svg width="14" height="13" viewBox="0 0 14 13" fill="none" xmlns="http://www.w3.org/2000/svg">
<path d="M13.125 8.22656V2.375C13.125 1.41797 12.332 0.625 11.375 0.625H2.625C1.66797 0.625 0.875 1.41797 0.875 2.375V11.125C0.875 12.082 1.66797 12.875 2.625 12.875H8.47656C8.91406 12.875 9.37891 12.6836 9.70703 12.3555L12.6055 9.45703C12.9336 9.12891 13.125 8.66406 13.125 8.22656ZM9.07812 11.7539C8.99609 11.8359 8.85938 11.8906 8.75 11.9453V8.9375C8.75 8.69141 8.94141 8.5 9.1875 8.5H12.1953C12.1406 8.60938 12.0859 8.74609 12.0039 8.82812L9.07812 11.7539ZM12.25 7.625H9.1875C8.47656 7.625 7.875 8.22656 7.875 8.9375V12H2.625C2.13281 12 1.75 11.6172 1.75 11.125V2.375C1.75 1.88281 2.13281 1.5 2.625 1.5H11.375C11.8672 1.5 12.25 1.88281 12.25 2.375V7.625Z" fill="#7E7BA2"/>
</svg>
