<svg width="16" height="15" viewBox="0 0 16 15" fill="none" xmlns="http://www.w3.org/2000/svg">
<path d="M14.6172 3.67578L12.0742 1.13281C11.8008 0.886719 11.4727 0.75 11.1172 0.75C10.7617 0.75 10.4336 0.886719 10.1602 1.13281L1.38281 9.91016C0.863281 10.4297 0.863281 11.3047 1.38281 11.8242L3.92578 14.3672C4.19922 14.6133 4.55469 14.75 4.88281 14.75C5.23828 14.75 5.56641 14.6133 5.83984 14.3672L14.6172 5.58984C15.1367 5.07031 15.1367 4.19531 14.6172 3.67578ZM4.91016 13.4375H4.85547L2.3125 10.8945V10.8398L3.76172 9.39062L4.63672 10.2383C4.71875 10.3203 4.82812 10.375 4.9375 10.375C5.04688 10.375 5.15625 10.3203 5.23828 10.2383C5.42969 10.0742 5.42969 9.80078 5.23828 9.63672L4.39062 8.76172L5.51172 7.64062L6.38672 8.48828C6.46875 8.57031 6.57812 8.625 6.6875 8.625C6.79688 8.625 6.90625 8.57031 6.98828 8.48828C7.17969 8.32422 7.17969 8.05078 6.98828 7.88672L6.14062 7.01172L7.26172 5.89062L8.13672 6.73828C8.21875 6.82031 8.32812 6.875 8.4375 6.875C8.54688 6.875 8.65625 6.82031 8.73828 6.73828C8.92969 6.57422 8.92969 6.30078 8.73828 6.13672L7.89062 5.26172L9.01172 4.14062L9.88672 4.98828C9.96875 5.07031 10.0781 5.125 10.1875 5.125C10.2969 5.125 10.4062 5.07031 10.4883 4.98828C10.6797 4.82422 10.6797 4.55078 10.4883 4.38672L9.64062 3.51172L11.0898 2.0625H11.1172H11.1445L13.6875 4.60547V4.66016L4.91016 13.4375Z" fill="white"/>
</svg>
