<svg width="15" height="15" viewBox="0 0 15 15" fill="none" xmlns="http://www.w3.org/2000/svg">
<g style="mix-blend-mode:overlay">
<path d="M13.8086 13.6289L10.1445 9.96484C10.9102 9.00781 11.375 7.77734 11.375 6.4375C11.375 3.29297 8.83203 0.75 5.6875 0.75C2.54297 0.75 0 3.29297 0 6.4375C0 9.58203 2.54297 12.125 5.6875 12.125C7.02734 12.125 8.25781 11.6602 9.21484 10.8945L12.8789 14.5586C13.0156 14.6953 13.1797 14.75 13.3438 14.75C13.5078 14.75 13.6719 14.6953 13.8086 14.5586C14.0547 14.3125 14.0547 13.875 13.8086 13.6289ZM1.3125 6.4375C1.3125 4.03125 3.28125 2.0625 5.6875 2.0625C8.09375 2.0625 10.0625 4.03125 10.0625 6.4375C10.0625 8.84375 8.09375 10.8125 5.6875 10.8125C3.28125 10.8125 1.3125 8.84375 1.3125 6.4375Z" fill="white"/>
</g>
</svg>
