<svg width="14" height="15" viewBox="0 0 14 15" fill="none" xmlns="http://www.w3.org/2000/svg">
<path d="M7 14.8594C7.46484 14.8594 7.95703 14.8047 8.42188 14.7227C8.80469 14.6406 9.07812 14.2852 9.07812 13.875V12.7812C9.48828 12.6172 9.89844 12.3984 10.2539 12.125L11.1836 12.6719C11.5117 12.8633 11.9766 12.7812 12.25 12.5078C12.8789 11.7969 13.3438 10.9766 13.6445 10.0742C13.7812 9.69141 13.6172 9.28125 13.2617 9.0625L12.332 8.51562C12.3594 8.29688 12.3594 8.07812 12.3594 7.85938C12.3594 7.64062 12.3594 7.42188 12.332 7.17578L13.2617 6.65625C13.6172 6.4375 13.7812 6.02734 13.6445 5.64453C13.3438 4.74219 12.8789 3.92188 12.25 3.21094C11.9766 2.91016 11.5117 2.85547 11.1836 3.04688L10.2539 3.59375C9.89844 3.32031 9.48828 3.10156 9.07812 2.91016V1.84375C9.07812 1.43359 8.80469 1.07812 8.42188 0.996094C7.46484 0.804688 6.53516 0.804688 5.60547 0.996094C5.22266 1.07812 4.92188 1.43359 4.92188 1.84375V2.91016C4.51172 3.10156 4.12891 3.32031 3.77344 3.59375L2.84375 3.04688C2.48828 2.85547 2.02344 2.91016 1.77734 3.21094C1.14844 3.92188 0.683594 4.74219 0.382812 5.64453C0.246094 6.02734 0.410156 6.4375 0.765625 6.65625L1.69531 7.17578C1.66797 7.42188 1.64062 7.64062 1.64062 7.85938C1.64062 8.07812 1.66797 8.29688 1.69531 8.51562L0.765625 9.0625C0.410156 9.28125 0.246094 9.69141 0.382812 10.0742C0.683594 10.9766 1.14844 11.7969 1.77734 12.5078C2.02344 12.7812 2.48828 12.8633 2.84375 12.6719L3.77344 12.125C4.12891 12.3984 4.51172 12.6172 4.92188 12.7812V13.875C4.92188 14.2852 5.22266 14.6406 5.60547 14.6953C6.07031 14.8047 6.53516 14.8594 7 14.8594ZM3.85547 11.0586L2.43359 11.9336C1.88672 11.3047 1.47656 10.5938 1.20312 9.82812L2.65234 8.98047C2.43359 7.80469 2.51562 7.47656 2.65234 6.73828L1.20312 5.91797C1.47656 5.125 1.88672 4.41406 2.40625 3.8125L3.85547 4.66016C4.83984 3.8125 5.35938 3.67578 5.79688 3.53906L5.76953 1.87109C6.58984 1.67969 7.4375 1.70703 8.20312 1.84375V3.53906C8.72266 3.70312 9.16016 3.8125 10.1445 4.66016L11.5938 3.78516C12.1406 4.41406 12.5508 5.125 12.8242 5.89062L11.3477 6.73828C11.5664 7.91406 11.4844 8.24219 11.3477 8.98047L12.7969 9.82812C12.5508 10.5938 12.1406 11.3047 11.6211 11.9062L10.1445 11.0586C9.16016 11.9062 8.64062 12.0156 8.20312 12.1797L8.23047 13.8477C7.41016 14.0391 6.58984 14.0117 5.79688 13.875V12.1797C5.30469 12.0156 4.83984 11.9062 3.85547 11.0586ZM7 10.4844C8.44922 10.4844 9.625 9.30859 9.625 7.85938C9.625 6.41016 8.44922 5.23438 7 5.23438C5.55078 5.23438 4.375 6.41016 4.375 7.85938C4.375 9.30859 5.55078 10.4844 7 10.4844ZM7 6.10938C7.98438 6.10938 8.75 6.90234 8.75 7.85938C8.75 8.81641 7.95703 9.60938 7 9.60938C6.04297 9.60938 5.25 8.81641 5.25 7.85938C5.25 6.90234 6.04297 6.10938 7 6.10938Z" fill="#7E7BA2"/>
</svg>
