<svg width="15" height="13" viewBox="0 0 15 13" fill="none" xmlns="http://www.w3.org/2000/svg">
<g style="mix-blend-mode:overlay">
<path d="M4.11719 0.84375C3.87109 0.542969 3.37891 0.542969 3.13281 0.84375L1.16406 3.03125C0.917969 3.30469 0.945312 3.71484 1.21875 3.96094C1.49219 4.17969 1.90234 4.17969 2.14844 3.90625L2.96875 2.97656V12.2188C2.96875 12.5742 3.26953 12.875 3.625 12.875C3.98047 12.875 4.28125 12.5742 4.28125 12.2188V2.97656L5.10156 3.90625C5.23828 4.04297 5.40234 4.125 5.59375 4.125C5.75781 4.125 5.89453 4.07031 6.03125 3.96094C6.30469 3.71484 6.33203 3.30469 6.08594 3.03125L4.11719 0.84375ZM14.3438 11.5625H7.78125C7.42578 11.5625 7.125 11.8633 7.125 12.2188C7.125 12.5742 7.42578 12.875 7.78125 12.875H14.3438C14.6992 12.875 15 12.5742 15 12.2188C15 11.8633 14.6992 11.5625 14.3438 11.5625ZM7.78125 9.375H12.5938C12.9492 9.375 13.25 9.07422 13.25 8.71875C13.25 8.36328 12.9492 8.0625 12.5938 8.0625H7.78125C7.42578 8.0625 7.125 8.36328 7.125 8.71875C7.125 9.07422 7.42578 9.375 7.78125 9.375ZM7.78125 5.875H10.8438C11.1992 5.875 11.5 5.57422 11.5 5.21875C11.5 4.86328 11.1992 4.5625 10.8438 4.5625H7.78125C7.42578 4.5625 7.125 4.86328 7.125 5.21875C7.125 5.57422 7.42578 5.875 7.78125 5.875ZM7.78125 2.375H9.09375C9.44922 2.375 9.75 2.07422 9.75 1.71875C9.75 1.36328 9.44922 1.0625 9.09375 1.0625H7.78125C7.42578 1.0625 7.125 1.33594 7.125 1.71875C7.125 2.10156 7.42578 2.375 7.78125 2.375Z" fill="white"/>
</g>
</svg>
