<svg width="14" height="15" viewBox="0 0 14 15" fill="none" xmlns="http://www.w3.org/2000/svg">
<path d="M7 7.75C8.94141 7.75 10.5 6.19141 10.5 4.25C10.5 2.30859 8.94141 0.75 7 0.75C5.05859 0.75 3.5 2.30859 3.5 4.25C3.5 6.19141 5.05859 7.75 7 7.75ZM7 1.625C8.44922 1.625 9.625 2.80078 9.625 4.25C9.625 5.69922 8.44922 6.875 7 6.875C5.55078 6.875 4.375 5.69922 4.375 4.25C4.375 2.80078 5.55078 1.625 7 1.625ZM8.39453 9.0625H5.60547C3.00781 9.0625 0.875 11.1953 0.875 13.793C0.875 14.3125 1.3125 14.75 1.83203 14.75H12.168C12.6875 14.75 13.125 14.3125 13.125 13.793C13.125 11.1953 10.9922 9.0625 8.39453 9.0625ZM12.168 13.875H1.83203C1.77734 13.875 1.75 13.8477 1.75 13.793C1.75 11.6602 3.47266 9.9375 5.60547 9.9375H8.39453C10.5273 9.9375 12.25 11.6602 12.25 13.793C12.25 13.8477 12.2227 13.875 12.168 13.875Z" fill="#7E7BA2"/>
</svg>
