<svg width="16" height="14" viewBox="0 0 16 14" fill="none" xmlns="http://www.w3.org/2000/svg">
<path d="M14.8359 11.5781L9.01172 1.625C8.57422 0.859375 7.42578 0.859375 6.98828 1.625L1.16406 11.5781C0.699219 12.3438 1.27344 13.3008 2.17578 13.3008H13.8242C14.7266 13.3008 15.3008 12.3438 14.8359 11.5781ZM7.34375 4.76953C7.34375 4.41406 7.64453 4.11328 8 4.11328C8.35547 4.11328 8.65625 4.41406 8.65625 4.76953V8.26953C8.65625 8.625 8.35547 8.92578 8 8.92578C7.64453 8.92578 7.34375 8.625 7.34375 8.26953V4.76953ZM8 11.5508C7.53516 11.5508 7.15234 11.168 7.15234 10.7031C7.15234 10.2109 7.53516 9.82812 8 9.82812C8.46484 9.82812 8.84766 10.2109 8.84766 10.7031C8.84766 11.168 8.46484 11.5508 8 11.5508Z" fill="#FFF323"/>
</svg>
